<mxfile host="app.diagrams.net" modified="2023-05-30T19:22:14.367Z" agent="Mozilla/5.0 (Windows NT 10.0; Win64; x64) AppleWebKit/537.36 (KHTML, like Gecko) Chrome/113.0.0.0 Safari/537.36" etag="OJUfbxaFa_aNuLvGZKPB" version="21.3.5" type="github">
  <diagram name="PÃ¡gina-1" id="Zj9HyYgJA-0YpRQ9Blbf">
    <mxGraphModel dx="1075" dy="519" grid="1" gridSize="10" guides="1" tooltips="1" connect="1" arrows="1" fold="1" page="1" pageScale="1" pageWidth="827" pageHeight="1169" math="0" shadow="0">
      <root>
        <mxCell id="0" />
        <mxCell id="1" parent="0" />
        <mxCell id="CD5FT2h2eBgp7e2nvYT2-1" value="14" style="text;html=1;align=center;verticalAlign=middle;resizable=0;points=[];autosize=1;strokeColor=none;fillColor=none;" parent="1" vertex="1">
          <mxGeometry x="220" y="60" width="40" height="30" as="geometry" />
        </mxCell>
        <mxCell id="CD5FT2h2eBgp7e2nvYT2-9" value="6" style="text;html=1;align=center;verticalAlign=middle;resizable=0;points=[];autosize=1;strokeColor=none;fillColor=none;" parent="1" vertex="1">
          <mxGeometry x="180" y="90" width="30" height="30" as="geometry" />
        </mxCell>
        <mxCell id="CD5FT2h2eBgp7e2nvYT2-10" value="12" style="text;html=1;align=center;verticalAlign=middle;resizable=0;points=[];autosize=1;strokeColor=none;fillColor=none;" parent="1" vertex="1">
          <mxGeometry x="200" y="130" width="40" height="30" as="geometry" />
        </mxCell>
        <mxCell id="CD5FT2h2eBgp7e2nvYT2-12" value="17" style="text;html=1;align=center;verticalAlign=middle;resizable=0;points=[];autosize=1;strokeColor=none;fillColor=none;" parent="1" vertex="1">
          <mxGeometry x="260" y="88" width="40" height="30" as="geometry" />
        </mxCell>
        <mxCell id="CD5FT2h2eBgp7e2nvYT2-13" value="30" style="text;html=1;align=center;verticalAlign=middle;resizable=0;points=[];autosize=1;strokeColor=none;fillColor=none;" parent="1" vertex="1">
          <mxGeometry x="290" y="130" width="40" height="30" as="geometry" />
        </mxCell>
        <mxCell id="CD5FT2h2eBgp7e2nvYT2-14" value="67" style="text;html=1;align=center;verticalAlign=middle;resizable=0;points=[];autosize=1;strokeColor=none;fillColor=none;" parent="1" vertex="1">
          <mxGeometry x="319" y="166" width="40" height="30" as="geometry" />
        </mxCell>
        <mxCell id="CD5FT2h2eBgp7e2nvYT2-15" value="4" style="text;html=1;align=center;verticalAlign=middle;resizable=0;points=[];autosize=1;strokeColor=none;fillColor=none;" parent="1" vertex="1">
          <mxGeometry x="135" y="128" width="30" height="30" as="geometry" />
        </mxCell>
        <mxCell id="CD5FT2h2eBgp7e2nvYT2-16" value="22" style="text;html=1;align=center;verticalAlign=middle;resizable=0;points=[];autosize=1;strokeColor=none;fillColor=none;" parent="1" vertex="1">
          <mxGeometry x="254" y="167" width="40" height="30" as="geometry" />
        </mxCell>
        <mxCell id="CD5FT2h2eBgp7e2nvYT2-17" value="31" style="text;html=1;align=center;verticalAlign=middle;resizable=0;points=[];autosize=1;strokeColor=none;fillColor=none;" parent="1" vertex="1">
          <mxGeometry x="299" y="200" width="40" height="30" as="geometry" />
        </mxCell>
        <mxCell id="CD5FT2h2eBgp7e2nvYT2-18" value="" style="endArrow=none;html=1;rounded=0;exitX=1;exitY=0.333;exitDx=0;exitDy=0;exitPerimeter=0;" parent="1" source="CD5FT2h2eBgp7e2nvYT2-9" edge="1">
          <mxGeometry width="50" height="50" relative="1" as="geometry">
            <mxPoint x="215" y="108" as="sourcePoint" />
            <mxPoint x="225" y="88" as="targetPoint" />
          </mxGeometry>
        </mxCell>
        <mxCell id="CD5FT2h2eBgp7e2nvYT2-19" value="" style="endArrow=none;html=1;rounded=0;exitX=1;exitY=0.333;exitDx=0;exitDy=0;exitPerimeter=0;" parent="1" edge="1">
          <mxGeometry width="50" height="50" relative="1" as="geometry">
            <mxPoint x="165" y="132" as="sourcePoint" />
            <mxPoint x="180" y="120" as="targetPoint" />
          </mxGeometry>
        </mxCell>
        <mxCell id="CD5FT2h2eBgp7e2nvYT2-21" value="" style="endArrow=none;html=1;rounded=0;exitX=0.356;exitY=0.087;exitDx=0;exitDy=0;exitPerimeter=0;" parent="1" source="CD5FT2h2eBgp7e2nvYT2-10" target="CD5FT2h2eBgp7e2nvYT2-9" edge="1">
          <mxGeometry width="50" height="50" relative="1" as="geometry">
            <mxPoint x="215.39999999999998" y="128" as="sourcePoint" />
            <mxPoint x="200" y="116.8589265536723" as="targetPoint" />
          </mxGeometry>
        </mxCell>
        <mxCell id="CD5FT2h2eBgp7e2nvYT2-23" value="" style="endArrow=none;html=1;rounded=0;" parent="1" edge="1">
          <mxGeometry width="50" height="50" relative="1" as="geometry">
            <mxPoint x="266.0869565217392" y="92" as="sourcePoint" />
            <mxPoint x="256" y="84" as="targetPoint" />
          </mxGeometry>
        </mxCell>
        <mxCell id="CD5FT2h2eBgp7e2nvYT2-24" value="" style="endArrow=none;html=1;rounded=0;entryX=0.743;entryY=0.963;entryDx=0;entryDy=0;entryPerimeter=0;exitX=0.216;exitY=0.011;exitDx=0;exitDy=0;exitPerimeter=0;" parent="1" source="CD5FT2h2eBgp7e2nvYT2-13" target="CD5FT2h2eBgp7e2nvYT2-12" edge="1">
          <mxGeometry width="50" height="50" relative="1" as="geometry">
            <mxPoint x="276.0869565217392" y="102" as="sourcePoint" />
            <mxPoint x="266" y="94" as="targetPoint" />
          </mxGeometry>
        </mxCell>
        <mxCell id="CD5FT2h2eBgp7e2nvYT2-25" value="" style="endArrow=none;html=1;rounded=0;entryX=0.359;entryY=0.924;entryDx=0;entryDy=0;entryPerimeter=0;exitX=1.073;exitY=0.11;exitDx=0;exitDy=0;exitPerimeter=0;" parent="1" edge="1">
          <mxGeometry width="50" height="50" relative="1" as="geometry">
            <mxPoint x="290.92" y="171.3" as="sourcePoint" />
            <mxPoint x="302.36000000000007" y="157.72000000000003" as="targetPoint" />
          </mxGeometry>
        </mxCell>
        <mxCell id="CD5FT2h2eBgp7e2nvYT2-26" value="" style="endArrow=none;html=1;rounded=0;entryX=0.811;entryY=0.933;entryDx=0;entryDy=0;entryPerimeter=0;" parent="1" source="CD5FT2h2eBgp7e2nvYT2-14" target="CD5FT2h2eBgp7e2nvYT2-13" edge="1">
          <mxGeometry width="50" height="50" relative="1" as="geometry">
            <mxPoint x="300.92" y="181.3" as="sourcePoint" />
            <mxPoint x="312.36000000000007" y="167.72000000000003" as="targetPoint" />
          </mxGeometry>
        </mxCell>
        <mxCell id="CD5FT2h2eBgp7e2nvYT2-27" value="" style="endArrow=none;html=1;rounded=0;entryX=0.359;entryY=0.924;entryDx=0;entryDy=0;entryPerimeter=0;exitX=1.073;exitY=0.11;exitDx=0;exitDy=0;exitPerimeter=0;" parent="1" edge="1">
          <mxGeometry width="50" height="50" relative="1" as="geometry">
            <mxPoint x="670" y="543.5799999999999" as="sourcePoint" />
            <mxPoint x="681.44" y="530" as="targetPoint" />
          </mxGeometry>
        </mxCell>
        <mxCell id="CD5FT2h2eBgp7e2nvYT2-28" value="" style="endArrow=none;html=1;rounded=0;entryX=0.359;entryY=0.924;entryDx=0;entryDy=0;entryPerimeter=0;exitX=1.073;exitY=0.11;exitDx=0;exitDy=0;exitPerimeter=0;" parent="1" edge="1">
          <mxGeometry width="50" height="50" relative="1" as="geometry">
            <mxPoint x="323.92" y="205.3" as="sourcePoint" />
            <mxPoint x="335.36000000000007" y="191.72000000000003" as="targetPoint" />
          </mxGeometry>
        </mxCell>
        <mxCell id="CD5FT2h2eBgp7e2nvYT2-29" value="70" style="text;html=1;align=center;verticalAlign=middle;resizable=0;points=[];autosize=1;strokeColor=none;fillColor=none;" parent="1" vertex="1">
          <mxGeometry x="339" y="200" width="40" height="30" as="geometry" />
        </mxCell>
        <mxCell id="CD5FT2h2eBgp7e2nvYT2-32" value="" style="endArrow=none;html=1;rounded=0;exitX=0.478;exitY=0.085;exitDx=0;exitDy=0;exitPerimeter=0;" parent="1" source="CD5FT2h2eBgp7e2nvYT2-33" edge="1">
          <mxGeometry width="50" height="50" relative="1" as="geometry">
            <mxPoint x="292" y="203" as="sourcePoint" />
            <mxPoint x="282" y="193" as="targetPoint" />
          </mxGeometry>
        </mxCell>
        <mxCell id="CD5FT2h2eBgp7e2nvYT2-33" value="25" style="text;html=1;align=center;verticalAlign=middle;resizable=0;points=[];autosize=1;strokeColor=none;fillColor=none;" parent="1" vertex="1">
          <mxGeometry x="268" y="200" width="40" height="30" as="geometry" />
        </mxCell>
        <mxCell id="CD5FT2h2eBgp7e2nvYT2-34" value="" style="endArrow=none;html=1;rounded=0;" parent="1" edge="1">
          <mxGeometry width="50" height="50" relative="1" as="geometry">
            <mxPoint x="359" y="202" as="sourcePoint" />
            <mxPoint x="349" y="192" as="targetPoint" />
          </mxGeometry>
        </mxCell>
        <mxCell id="CD5FT2h2eBgp7e2nvYT2-35" value="" style="endArrow=none;html=1;rounded=0;exitX=1;exitY=0.333;exitDx=0;exitDy=0;exitPerimeter=0;" parent="1" edge="1">
          <mxGeometry width="50" height="50" relative="1" as="geometry">
            <mxPoint x="197" y="165" as="sourcePoint" />
            <mxPoint x="212" y="153" as="targetPoint" />
          </mxGeometry>
        </mxCell>
        <mxCell id="CD5FT2h2eBgp7e2nvYT2-36" value="10" style="text;html=1;align=center;verticalAlign=middle;resizable=0;points=[];autosize=1;strokeColor=none;fillColor=none;" parent="1" vertex="1">
          <mxGeometry x="160" y="158" width="40" height="30" as="geometry" />
        </mxCell>
        <mxCell id="CD5FT2h2eBgp7e2nvYT2-37" value="" style="endArrow=none;html=1;rounded=0;exitX=0.779;exitY=0.033;exitDx=0;exitDy=0;exitPerimeter=0;" parent="1" source="CD5FT2h2eBgp7e2nvYT2-38" edge="1">
          <mxGeometry width="50" height="50" relative="1" as="geometry">
            <mxPoint x="256" y="127" as="sourcePoint" />
            <mxPoint x="271" y="115" as="targetPoint" />
          </mxGeometry>
        </mxCell>
        <mxCell id="CD5FT2h2eBgp7e2nvYT2-38" value="15" style="text;html=1;align=center;verticalAlign=middle;resizable=0;points=[];autosize=1;strokeColor=none;fillColor=none;" parent="1" vertex="1">
          <mxGeometry x="228" y="129" width="40" height="30" as="geometry" />
        </mxCell>
        <mxCell id="CD5FT2h2eBgp7e2nvYT2-39" value="" style="endArrow=none;html=1;rounded=0;entryX=0.329;entryY=0.987;entryDx=0;entryDy=0;entryPerimeter=0;" parent="1" target="CD5FT2h2eBgp7e2nvYT2-15" edge="1">
          <mxGeometry width="50" height="50" relative="1" as="geometry">
            <mxPoint x="130" y="170" as="sourcePoint" />
            <mxPoint x="222" y="163" as="targetPoint" />
          </mxGeometry>
        </mxCell>
        <mxCell id="CD5FT2h2eBgp7e2nvYT2-40" value="0" style="text;html=1;align=center;verticalAlign=middle;resizable=0;points=[];autosize=1;strokeColor=none;fillColor=none;" parent="1" vertex="1">
          <mxGeometry x="109" y="165" width="30" height="30" as="geometry" />
        </mxCell>
        <mxCell id="OLvcI9nBcCkAyoJv3zxz-1" value="Exercicio 2" style="text;html=1;align=center;verticalAlign=middle;resizable=0;points=[];autosize=1;strokeColor=none;fillColor=none;" vertex="1" parent="1">
          <mxGeometry x="205" y="20" width="80" height="30" as="geometry" />
        </mxCell>
        <mxCell id="OLvcI9nBcCkAyoJv3zxz-2" value="Exercicio 3" style="text;html=1;align=center;verticalAlign=middle;resizable=0;points=[];autosize=1;strokeColor=none;fillColor=none;" vertex="1" parent="1">
          <mxGeometry x="500" y="20" width="80" height="30" as="geometry" />
        </mxCell>
        <mxCell id="OLvcI9nBcCkAyoJv3zxz-3" value="14" style="text;html=1;align=center;verticalAlign=middle;resizable=0;points=[];autosize=1;strokeColor=none;fillColor=none;" vertex="1" parent="1">
          <mxGeometry x="520" y="50" width="40" height="30" as="geometry" />
        </mxCell>
        <mxCell id="OLvcI9nBcCkAyoJv3zxz-4" value="12" style="text;html=1;align=center;verticalAlign=middle;resizable=0;points=[];autosize=1;strokeColor=none;fillColor=none;" vertex="1" parent="1">
          <mxGeometry x="460" y="88" width="40" height="30" as="geometry" />
        </mxCell>
        <mxCell id="OLvcI9nBcCkAyoJv3zxz-5" value="17" style="text;html=1;align=center;verticalAlign=middle;resizable=0;points=[];autosize=1;strokeColor=none;fillColor=none;" vertex="1" parent="1">
          <mxGeometry x="560" y="88" width="40" height="30" as="geometry" />
        </mxCell>
        <mxCell id="OLvcI9nBcCkAyoJv3zxz-6" value="30" style="text;html=1;align=center;verticalAlign=middle;resizable=0;points=[];autosize=1;strokeColor=none;fillColor=none;" vertex="1" parent="1">
          <mxGeometry x="590" y="120" width="40" height="30" as="geometry" />
        </mxCell>
        <mxCell id="OLvcI9nBcCkAyoJv3zxz-7" value="67" style="text;html=1;align=center;verticalAlign=middle;resizable=0;points=[];autosize=1;strokeColor=none;fillColor=none;" vertex="1" parent="1">
          <mxGeometry x="640" y="148" width="40" height="30" as="geometry" />
        </mxCell>
        <mxCell id="OLvcI9nBcCkAyoJv3zxz-8" value="4" style="text;html=1;align=center;verticalAlign=middle;resizable=0;points=[];autosize=1;strokeColor=none;fillColor=none;" vertex="1" parent="1">
          <mxGeometry x="430" y="120" width="30" height="30" as="geometry" />
        </mxCell>
        <mxCell id="OLvcI9nBcCkAyoJv3zxz-9" value="22" style="text;html=1;align=center;verticalAlign=middle;resizable=0;points=[];autosize=1;strokeColor=none;fillColor=none;" vertex="1" parent="1">
          <mxGeometry x="550" y="150" width="40" height="30" as="geometry" />
        </mxCell>
        <mxCell id="OLvcI9nBcCkAyoJv3zxz-10" value="31" style="text;html=1;align=center;verticalAlign=middle;resizable=0;points=[];autosize=1;strokeColor=none;fillColor=none;" vertex="1" parent="1">
          <mxGeometry x="616" y="185" width="40" height="30" as="geometry" />
        </mxCell>
        <mxCell id="OLvcI9nBcCkAyoJv3zxz-11" value="70" style="text;html=1;align=center;verticalAlign=middle;resizable=0;points=[];autosize=1;strokeColor=none;fillColor=none;" vertex="1" parent="1">
          <mxGeometry x="660" y="180" width="40" height="30" as="geometry" />
        </mxCell>
        <mxCell id="OLvcI9nBcCkAyoJv3zxz-12" value="25" style="text;html=1;align=center;verticalAlign=middle;resizable=0;points=[];autosize=1;strokeColor=none;fillColor=none;" vertex="1" parent="1">
          <mxGeometry x="570" y="186" width="40" height="30" as="geometry" />
        </mxCell>
        <mxCell id="OLvcI9nBcCkAyoJv3zxz-13" value="10" style="text;html=1;align=center;verticalAlign=middle;resizable=0;points=[];autosize=1;strokeColor=none;fillColor=none;" vertex="1" parent="1">
          <mxGeometry x="450" y="150" width="40" height="30" as="geometry" />
        </mxCell>
        <mxCell id="OLvcI9nBcCkAyoJv3zxz-14" value="15" style="text;html=1;align=center;verticalAlign=middle;resizable=0;points=[];autosize=1;strokeColor=none;fillColor=none;" vertex="1" parent="1">
          <mxGeometry x="474" y="184" width="40" height="30" as="geometry" />
        </mxCell>
        <mxCell id="OLvcI9nBcCkAyoJv3zxz-15" value="0" style="text;html=1;align=center;verticalAlign=middle;resizable=0;points=[];autosize=1;strokeColor=none;fillColor=none;" vertex="1" parent="1">
          <mxGeometry x="399" y="150" width="30" height="30" as="geometry" />
        </mxCell>
        <mxCell id="OLvcI9nBcCkAyoJv3zxz-17" value="" style="endArrow=none;html=1;rounded=0;" edge="1" parent="1">
          <mxGeometry width="50" height="50" relative="1" as="geometry">
            <mxPoint x="503" y="96" as="sourcePoint" />
            <mxPoint x="523" y="76" as="targetPoint" />
          </mxGeometry>
        </mxCell>
        <mxCell id="OLvcI9nBcCkAyoJv3zxz-18" value="" style="endArrow=none;html=1;rounded=0;" edge="1" parent="1">
          <mxGeometry width="50" height="50" relative="1" as="geometry">
            <mxPoint x="453" y="133" as="sourcePoint" />
            <mxPoint x="473" y="113" as="targetPoint" />
          </mxGeometry>
        </mxCell>
        <mxCell id="OLvcI9nBcCkAyoJv3zxz-19" value="" style="endArrow=none;html=1;rounded=0;" edge="1" parent="1">
          <mxGeometry width="50" height="50" relative="1" as="geometry">
            <mxPoint x="421" y="161" as="sourcePoint" />
            <mxPoint x="441" y="141" as="targetPoint" />
          </mxGeometry>
        </mxCell>
        <mxCell id="OLvcI9nBcCkAyoJv3zxz-20" value="" style="endArrow=none;html=1;rounded=0;" edge="1" parent="1">
          <mxGeometry width="50" height="50" relative="1" as="geometry">
            <mxPoint x="581" y="160" as="sourcePoint" />
            <mxPoint x="601" y="140" as="targetPoint" />
          </mxGeometry>
        </mxCell>
        <mxCell id="OLvcI9nBcCkAyoJv3zxz-21" value="" style="endArrow=none;html=1;rounded=0;" edge="1" parent="1">
          <mxGeometry width="50" height="50" relative="1" as="geometry">
            <mxPoint x="644" y="192" as="sourcePoint" />
            <mxPoint x="653" y="171" as="targetPoint" />
          </mxGeometry>
        </mxCell>
        <mxCell id="OLvcI9nBcCkAyoJv3zxz-22" value="" style="endArrow=none;html=1;rounded=0;" edge="1" parent="1">
          <mxGeometry width="50" height="50" relative="1" as="geometry">
            <mxPoint x="571" y="95" as="sourcePoint" />
            <mxPoint x="551" y="75" as="targetPoint" />
          </mxGeometry>
        </mxCell>
        <mxCell id="OLvcI9nBcCkAyoJv3zxz-25" value="" style="endArrow=none;html=1;rounded=0;" edge="1" parent="1">
          <mxGeometry width="50" height="50" relative="1" as="geometry">
            <mxPoint x="606" y="127" as="sourcePoint" />
            <mxPoint x="586" y="107" as="targetPoint" />
          </mxGeometry>
        </mxCell>
        <mxCell id="OLvcI9nBcCkAyoJv3zxz-26" value="" style="endArrow=none;html=1;rounded=0;" edge="1" parent="1">
          <mxGeometry width="50" height="50" relative="1" as="geometry">
            <mxPoint x="650" y="160" as="sourcePoint" />
            <mxPoint x="621" y="140" as="targetPoint" />
          </mxGeometry>
        </mxCell>
        <mxCell id="OLvcI9nBcCkAyoJv3zxz-27" value="" style="endArrow=none;html=1;rounded=0;" edge="1" parent="1">
          <mxGeometry width="50" height="50" relative="1" as="geometry">
            <mxPoint x="585.3103448275863" y="189" as="sourcePoint" />
            <mxPoint x="580" y="175" as="targetPoint" />
          </mxGeometry>
        </mxCell>
        <mxCell id="OLvcI9nBcCkAyoJv3zxz-28" value="" style="endArrow=none;html=1;rounded=0;" edge="1" parent="1">
          <mxGeometry width="50" height="50" relative="1" as="geometry">
            <mxPoint x="463" y="158" as="sourcePoint" />
            <mxPoint x="452" y="141" as="targetPoint" />
          </mxGeometry>
        </mxCell>
        <mxCell id="OLvcI9nBcCkAyoJv3zxz-29" value="" style="endArrow=none;html=1;rounded=0;" edge="1" parent="1">
          <mxGeometry width="50" height="50" relative="1" as="geometry">
            <mxPoint x="488" y="192.5" as="sourcePoint" />
            <mxPoint x="477" y="171.5" as="targetPoint" />
          </mxGeometry>
        </mxCell>
        <mxCell id="OLvcI9nBcCkAyoJv3zxz-30" value="" style="endArrow=none;html=1;rounded=0;" edge="1" parent="1">
          <mxGeometry width="50" height="50" relative="1" as="geometry">
            <mxPoint x="678" y="188" as="sourcePoint" />
            <mxPoint x="668" y="168.5" as="targetPoint" />
          </mxGeometry>
        </mxCell>
        <mxCell id="OLvcI9nBcCkAyoJv3zxz-31" value="Exercicio 4" style="text;html=1;align=center;verticalAlign=middle;resizable=0;points=[];autosize=1;strokeColor=none;fillColor=none;" vertex="1" parent="1">
          <mxGeometry x="901" y="18" width="80" height="30" as="geometry" />
        </mxCell>
        <mxCell id="OLvcI9nBcCkAyoJv3zxz-32" value="14" style="text;html=1;align=center;verticalAlign=middle;resizable=0;points=[];autosize=1;strokeColor=none;fillColor=none;" vertex="1" parent="1">
          <mxGeometry x="921" y="48" width="40" height="30" as="geometry" />
        </mxCell>
        <mxCell id="OLvcI9nBcCkAyoJv3zxz-33" value="12" style="text;html=1;align=center;verticalAlign=middle;resizable=0;points=[];autosize=1;strokeColor=none;fillColor=none;" vertex="1" parent="1">
          <mxGeometry x="861" y="86" width="40" height="30" as="geometry" />
        </mxCell>
        <mxCell id="OLvcI9nBcCkAyoJv3zxz-34" value="17" style="text;html=1;align=center;verticalAlign=middle;resizable=0;points=[];autosize=1;strokeColor=none;fillColor=none;" vertex="1" parent="1">
          <mxGeometry x="961" y="86" width="40" height="30" as="geometry" />
        </mxCell>
        <mxCell id="OLvcI9nBcCkAyoJv3zxz-37" value="4" style="text;html=1;align=center;verticalAlign=middle;resizable=0;points=[];autosize=1;strokeColor=none;fillColor=none;" vertex="1" parent="1">
          <mxGeometry x="831" y="118" width="30" height="30" as="geometry" />
        </mxCell>
        <mxCell id="OLvcI9nBcCkAyoJv3zxz-42" value="10" style="text;html=1;align=center;verticalAlign=middle;resizable=0;points=[];autosize=1;strokeColor=none;fillColor=none;" vertex="1" parent="1">
          <mxGeometry x="851" y="148" width="40" height="30" as="geometry" />
        </mxCell>
        <mxCell id="OLvcI9nBcCkAyoJv3zxz-43" value="15" style="text;html=1;align=center;verticalAlign=middle;resizable=0;points=[];autosize=1;strokeColor=none;fillColor=none;" vertex="1" parent="1">
          <mxGeometry x="875" y="182" width="40" height="30" as="geometry" />
        </mxCell>
        <mxCell id="OLvcI9nBcCkAyoJv3zxz-44" value="0" style="text;html=1;align=center;verticalAlign=middle;resizable=0;points=[];autosize=1;strokeColor=none;fillColor=none;" vertex="1" parent="1">
          <mxGeometry x="800" y="148" width="30" height="30" as="geometry" />
        </mxCell>
        <mxCell id="OLvcI9nBcCkAyoJv3zxz-45" value="" style="endArrow=none;html=1;rounded=0;" edge="1" parent="1">
          <mxGeometry width="50" height="50" relative="1" as="geometry">
            <mxPoint x="904" y="94" as="sourcePoint" />
            <mxPoint x="924" y="74" as="targetPoint" />
          </mxGeometry>
        </mxCell>
        <mxCell id="OLvcI9nBcCkAyoJv3zxz-46" value="" style="endArrow=none;html=1;rounded=0;" edge="1" parent="1">
          <mxGeometry width="50" height="50" relative="1" as="geometry">
            <mxPoint x="854" y="131" as="sourcePoint" />
            <mxPoint x="874" y="111" as="targetPoint" />
          </mxGeometry>
        </mxCell>
        <mxCell id="OLvcI9nBcCkAyoJv3zxz-47" value="" style="endArrow=none;html=1;rounded=0;" edge="1" parent="1">
          <mxGeometry width="50" height="50" relative="1" as="geometry">
            <mxPoint x="822" y="159" as="sourcePoint" />
            <mxPoint x="842" y="139" as="targetPoint" />
          </mxGeometry>
        </mxCell>
        <mxCell id="OLvcI9nBcCkAyoJv3zxz-50" value="" style="endArrow=none;html=1;rounded=0;" edge="1" parent="1">
          <mxGeometry width="50" height="50" relative="1" as="geometry">
            <mxPoint x="972" y="93" as="sourcePoint" />
            <mxPoint x="952" y="73" as="targetPoint" />
          </mxGeometry>
        </mxCell>
        <mxCell id="OLvcI9nBcCkAyoJv3zxz-51" value="" style="endArrow=none;html=1;rounded=0;" edge="1" parent="1">
          <mxGeometry width="50" height="50" relative="1" as="geometry">
            <mxPoint x="1007" y="125" as="sourcePoint" />
            <mxPoint x="987" y="105" as="targetPoint" />
          </mxGeometry>
        </mxCell>
        <mxCell id="OLvcI9nBcCkAyoJv3zxz-54" value="" style="endArrow=none;html=1;rounded=0;" edge="1" parent="1">
          <mxGeometry width="50" height="50" relative="1" as="geometry">
            <mxPoint x="864" y="156" as="sourcePoint" />
            <mxPoint x="853" y="139" as="targetPoint" />
          </mxGeometry>
        </mxCell>
        <mxCell id="OLvcI9nBcCkAyoJv3zxz-55" value="" style="endArrow=none;html=1;rounded=0;" edge="1" parent="1">
          <mxGeometry width="50" height="50" relative="1" as="geometry">
            <mxPoint x="889" y="190.5" as="sourcePoint" />
            <mxPoint x="878" y="169.5" as="targetPoint" />
          </mxGeometry>
        </mxCell>
        <mxCell id="OLvcI9nBcCkAyoJv3zxz-57" value="67" style="text;html=1;align=center;verticalAlign=middle;resizable=0;points=[];autosize=1;strokeColor=none;fillColor=none;" vertex="1" parent="1">
          <mxGeometry x="991" y="120" width="40" height="30" as="geometry" />
        </mxCell>
        <mxCell id="OLvcI9nBcCkAyoJv3zxz-58" value="22" style="text;html=1;align=center;verticalAlign=middle;resizable=0;points=[];autosize=1;strokeColor=none;fillColor=none;" vertex="1" parent="1">
          <mxGeometry x="951" y="148" width="40" height="30" as="geometry" />
        </mxCell>
        <mxCell id="OLvcI9nBcCkAyoJv3zxz-59" value="31" style="text;html=1;align=center;verticalAlign=middle;resizable=0;points=[];autosize=1;strokeColor=none;fillColor=none;" vertex="1" parent="1">
          <mxGeometry x="994" y="180" width="40" height="30" as="geometry" />
        </mxCell>
        <mxCell id="OLvcI9nBcCkAyoJv3zxz-60" value="70" style="text;html=1;align=center;verticalAlign=middle;resizable=0;points=[];autosize=1;strokeColor=none;fillColor=none;" vertex="1" parent="1">
          <mxGeometry x="1021" y="148" width="40" height="30" as="geometry" />
        </mxCell>
        <mxCell id="OLvcI9nBcCkAyoJv3zxz-61" value="25" style="text;html=1;align=center;verticalAlign=middle;resizable=0;points=[];autosize=1;strokeColor=none;fillColor=none;" vertex="1" parent="1">
          <mxGeometry x="970" y="210" width="40" height="30" as="geometry" />
        </mxCell>
        <mxCell id="OLvcI9nBcCkAyoJv3zxz-62" value="" style="endArrow=none;html=1;rounded=0;" edge="1" parent="1">
          <mxGeometry width="50" height="50" relative="1" as="geometry">
            <mxPoint x="981" y="160" as="sourcePoint" />
            <mxPoint x="1001" y="140" as="targetPoint" />
          </mxGeometry>
        </mxCell>
        <mxCell id="OLvcI9nBcCkAyoJv3zxz-63" value="" style="endArrow=none;html=1;rounded=0;" edge="1" parent="1">
          <mxGeometry width="50" height="50" relative="1" as="geometry">
            <mxPoint x="996" y="216" as="sourcePoint" />
            <mxPoint x="1010" y="202" as="targetPoint" />
          </mxGeometry>
        </mxCell>
        <mxCell id="OLvcI9nBcCkAyoJv3zxz-64" value="" style="endArrow=none;html=1;rounded=0;" edge="1" parent="1">
          <mxGeometry width="50" height="50" relative="1" as="geometry">
            <mxPoint x="1000" y="190" as="sourcePoint" />
            <mxPoint x="983" y="170" as="targetPoint" />
          </mxGeometry>
        </mxCell>
        <mxCell id="OLvcI9nBcCkAyoJv3zxz-65" value="" style="endArrow=none;html=1;rounded=0;" edge="1" parent="1">
          <mxGeometry width="50" height="50" relative="1" as="geometry">
            <mxPoint x="1032" y="156" as="sourcePoint" />
            <mxPoint x="1021" y="139" as="targetPoint" />
          </mxGeometry>
        </mxCell>
      </root>
    </mxGraphModel>
  </diagram>
</mxfile>
